<svg width="75" height="24" viewBox="0 0 75 24" fill="none" xmlns="http://www.w3.org/2000/svg">
<path d="M7.55508 5.29404C7.64643 5.38691 7.7189 5.49727 7.76836 5.61879C7.81781 5.7403 7.84327 5.87058 7.84327 6.00216C7.84327 6.13373 7.81781 6.26401 7.76836 6.38553C7.7189 6.50704 7.64643 6.6174 7.55508 6.71028L3.3509 10.9998L15.3535 10.9998C15.6134 10.9998 15.8626 11.1052 16.0464 11.2926C16.2301 11.4801 16.3333 11.7344 16.3333 11.9995C16.3333 12.2647 16.2301 12.5189 16.0464 12.7064C15.8626 12.8939 15.6134 12.9992 15.3535 12.9992L3.3509 12.9992L7.55508 17.2904C7.73915 17.4782 7.84256 17.733 7.84256 17.9986C7.84256 18.2642 7.73915 18.5189 7.55508 18.7067C7.37102 18.8945 7.12137 19 6.86105 19C6.60074 19 6.35109 18.8945 6.16702 18.7067L0.288182 12.7085C0.196838 12.6156 0.124362 12.5052 0.0749089 12.3837C0.0254561 12.2622 -3.00213e-07 12.1319 -3.05964e-07 12.0004C-3.11715e-07 11.8688 0.025456 11.7385 0.0749089 11.617C0.124362 11.4955 0.196838 11.3851 0.288182 11.2922L6.16702 5.29404C6.25805 5.20084 6.36621 5.12689 6.48531 5.07643C6.60441 5.02597 6.7321 5 6.86105 5C6.99001 5 7.1177 5.02597 7.23679 5.07643C7.35589 5.12689 7.46406 5.20084 7.55508 5.29404Z" fill="black"/>
<path d="M28.6758 19H26.2832L21.2539 4.9082H23.627L27.4648 16.5391H27.5234L31.3711 4.9082H33.7051L28.6758 19ZM41.6055 17.7695C40.7201 18.7201 39.5384 19.1953 38.0605 19.1953C36.5827 19.1953 35.401 18.7201 34.5156 17.7695C33.6302 16.8125 33.1875 15.5104 33.1875 13.8633C33.1875 12.2227 33.6302 10.9271 34.5156 9.97656C35.401 9.01953 36.5827 8.54102 38.0605 8.54102C39.5384 8.54102 40.7201 9.01953 41.6055 9.97656C42.4909 10.9271 42.9336 12.2227 42.9336 13.8633C42.9336 15.5104 42.4909 16.8125 41.6055 17.7695ZM38.0605 17.457C38.9004 17.457 39.5645 17.1413 40.0527 16.5098C40.541 15.8783 40.7852 14.9961 40.7852 13.8633C40.7852 12.737 40.5378 11.8581 40.043 11.2266C39.5547 10.5951 38.8939 10.2793 38.0605 10.2793C37.2272 10.2793 36.5632 10.5951 36.0684 11.2266C35.5801 11.8581 35.3359 12.737 35.3359 13.8633C35.3359 14.9961 35.5801 15.8783 36.0684 16.5098C36.5632 17.1413 37.2272 17.457 38.0605 17.457ZM44.6426 19V4.9082H46.752V19H44.6426ZM57.6895 8.72656L54.0078 19H51.7422L48.041 8.72656H50.2871L52.8652 16.9395H52.9043L55.4824 8.72656H57.6895ZM64.6914 10.9824C64.2292 10.4876 63.6335 10.2402 62.9043 10.2402C62.1751 10.2402 61.5697 10.4909 61.0879 10.9922C60.6061 11.487 60.3392 12.1283 60.2871 12.916H65.4238C65.3978 12.1217 65.1536 11.4772 64.6914 10.9824ZM65.4141 15.9824H67.416C67.2663 16.9264 66.7845 17.6979 65.9707 18.2969C65.1569 18.8958 64.1641 19.1953 62.9922 19.1953C61.4883 19.1953 60.3034 18.7233 59.4375 17.7793C58.5781 16.8288 58.1484 15.5397 58.1484 13.9121C58.1484 12.2975 58.5781 10.9987 59.4375 10.0156C60.3034 9.03255 61.459 8.54102 62.9043 8.54102C64.3236 8.54102 65.4499 9.00651 66.2832 9.9375C67.1165 10.862 67.5332 12.1055 67.5332 13.668V14.3906H60.2773V14.5176C60.2773 15.416 60.528 16.1354 61.0293 16.6758C61.5306 17.2161 62.2012 17.4863 63.041 17.4863C63.6335 17.4863 64.1413 17.3496 64.5645 17.0762C64.9876 16.8027 65.2708 16.4382 65.4141 15.9824ZM69.1738 19V8.72656H71.1855V10.4746H71.2344C71.4036 9.87565 71.7064 9.4069 72.1426 9.06836C72.5788 8.72982 73.0996 8.56055 73.7051 8.56055C73.9069 8.56055 74.1478 8.58659 74.4277 8.63867V10.6016C74.2389 10.5234 73.9232 10.4844 73.4805 10.4844C72.8034 10.4844 72.2663 10.696 71.8691 11.1191C71.4785 11.5423 71.2832 12.1185 71.2832 12.8477V19H69.1738Z" fill="black"/>
</svg>
